# xmcd
#
# Track frame offsets: 
#        150
#        16785
#        38410
#        58953
#        81478
#        100855
#        120950
#        146171
#        161864
#        186861
#        201150
#        220902
#
# Disc length: 3143 seconds
#
# Revision: 1
# Processed by: cddbd v1.5.2PL0 Copyright (c) Steve Scherf et al.
# Submitted via: ExactAudioCopy v1.0b3
#
DISCID=a70c450c
DTITLE=Son Ca, VA - Ngay Cuoi Em
DYEAR=1990
DGENRE=
TTITLE0=Son Ca, Bui Thien - Tinh ta voi minh
TTITLE1=Son Ca - Ta ao cuoi
TTITLE2=Son Ca - Ngay cuoi em
TTITLE3=Son Ca, Tuan Dat - Duong ve que huong
TTITLE4=Son Ca - Xe hoa mot chiec
TTITLE5=Son Ca, Khanh Dung - Be yeu
TTITLE6=Son Ca, Bui Thien - Dua em xuong thuyen
TTITLE7=Son Ca - Thien dang ai an
TTITLE8=Son Ca, Tuan Minh - Dam cuoi tren duong que
TTITLE9=Son Ca - Chi co em
TTITLE10=Son Ca, Khanh Dung - Tau ve que huong
TTITLE11=Son Ca - Ngay hanh phuc
EXTD=
EXTT0=
EXTT1=
EXTT2=
EXTT3=
EXTT4=
EXTT5=
EXTT6=
EXTT7=
EXTT8=
EXTT9=
EXTT10=
EXTT11=
PLAYORDER=
